<?xml version="1.0" encoding="UTF-8"?>
<svg id="Layer_2" data-name="Layer 2" xmlns="http://www.w3.org/2000/svg" viewBox="0 0 1095 976.72">
  <defs>
    <style>
      .cls-1, .cls-2, .cls-3, .cls-4, .cls-5 {
        stroke: #000;
        stroke-miterlimit: 10;
      }

      .cls-1, .cls-2, .cls-4 {
        stroke-width: 30px;
      }

      .cls-1, .cls-3, .cls-6 {
        fill: #ed1c24;
      }

      .cls-2 {
        fill: none;
      }

      .cls-3 {
        stroke-width: 70px;
      }

      .cls-4, .cls-5 {
        fill: #f8ec20;
      }

      .cls-5 {
        stroke-width: 14px;
      }
    </style>
  </defs>
  <path class="cls-6" d="M692.03,648c-64.1,0-112.66-6.48-144.34-19.25-27.6-11.13-40.49-26-46.18-39.41-21.49-1.52-54.58-3.27-86.15-3.27-33.54,0-50.49,2.04-58.46,3.57-14.93,6.52-19.2,7.26-24.34,7.26h-24.17l-5.23-23.65c-2.26-10.38,.76-25.46,16.72-33.8,1.45-.76,3.3-1.65,5.68-2.74,3.61-1.65,7.65-3.06,12.28-4.26,18.26-8.28,32.33-16.41,41.67-22.87-13.64-5.05-36.42-11.75-71.74-18.6-46.32-8.99-95.83-14.58-129.2-14.58-19.84,0-26.78,1.97-27.98,2.37-4.39,2.31-10.32,5.3-18.14,5.31h-.02c-10.74,0-20.74-5.76-26.1-15.04-5.36-9.28-5.35-20.84,.02-30.16,3.64-6.31,6.97-9.72,32.49-26,9.2-5.87,28.12-17.68,51.56-30.89,17.64-9.94,32.6-17.74,45.3-23.86-2.92-1.55-5.83-3.1-8.7-4.62l-64.59-34.2,69.99-21.05c38.55-11.59,82.22-25.72,110.94-36.09-10.23-8.63-21.6-17.72-28.99-23.63-8.08-6.46-15.06-12.03-20.37-16.54-3.35-2.85-5.8-5.07-7.7-7-12.39-12.52-11.28-25.22-9.52-31.67,3.18-11.67,13.01-20.32,25.04-22.04l.51-.07,.51-.06c131.31-14.18,178.64-35.16,216.68-52.02,34.09-15.11,63.53-28.16,130.55-28.16,74.86,0,151.61,23.45,210.59,64.35,32.61,22.61,59.29,49.89,79.31,81.08,21.89,34.11,35.32,72.22,39.91,113.24,6.04,54.02-20.53,145.26-83,215.11-54.55,60.99-125.37,93.23-204.82,93.23Z"/>
  <path class="cls-1" d="M691.03,648c-64.1,0-112.66-6.48-144.34-19.25-27.6-11.13-40.49-26-46.18-39.41-21.49-1.52-54.58-3.27-86.15-3.27-33.54,0-50.49,2.04-58.46,3.57-14.93,6.52-19.2,7.26-24.34,7.26h-24.17l-5.23-23.65c-2.26-10.38,.76-25.46,16.72-33.8,1.45-.76,3.3-1.65,5.68-2.74,3.61-1.65,7.65-3.06,12.28-4.26,18.26-8.28,32.33-16.41,41.67-22.87-13.64-5.05-36.42-11.75-71.74-18.6-46.32-8.99-95.83-14.58-129.2-14.58-19.84,0-26.78,1.97-27.98,2.37-4.39,2.31-10.32,5.3-18.14,5.31h-.02c-10.74,0-20.74-5.76-26.1-15.04-5.36-9.28-5.35-20.84,.02-30.16,3.64-6.31,6.97-9.72,32.49-26,9.2-5.87,28.12-17.68,51.56-30.89,17.64-9.94,32.6-17.74,45.3-23.86-2.92-1.55-5.83-3.1-8.7-4.62l-64.59-34.2,69.99-21.05c38.55-11.59,82.22-25.72,110.94-36.09-10.23-8.63-21.6-17.72-28.99-23.63-8.08-6.46-15.06-12.03-20.37-16.54-3.35-2.85-5.8-5.07-7.7-7-12.39-12.52-11.28-25.22-9.52-31.67,3.18-11.67,13.01-20.32,25.04-22.04l.51-.07,.51-.06c131.31-14.18,178.64-35.16,216.68-52.02,34.09-15.11,63.53-28.16,130.55-28.16,74.86,0,151.61,23.45,210.59,64.35,32.61,22.61,59.29,49.89,79.31,81.08,21.89,34.11,35.32,72.22,39.91,113.24,6.04,54.02-20.53,145.26-83,215.11-54.55,60.99-125.37,93.23-204.82,93.23Z"/>
  <path class="cls-1" d="M950.04,343c8.89,79.51-72,275-258,275s-166-55-162-56-157-14-192,2,108-38,79-68-244-63-280-44,144-99,175-85-71-40-71-40c0,0,143-43,151-54s-93-81-86-82c250-27,211-80,344-80s283,80,300,232Z"/>
  <path class="cls-3" d="M728.17,941.72c-16.18,0-27.22-12.14-34.24-21.53-9.66-12.91-21.42-34.28-37.03-67.27-.22-.47-.44-.94-.67-1.41-4.39,11.73-12.63,25.2-30.02,29.55-19.01,4.75-59.93-3.27-72.01-5.84l-.99-.24c-22.46-5.99-52.93-26.13-64.88-63.18-6.54-20.28,.77-39.24,19.07-49.48,10.75-6.02,28.42-9.82,42.39-6.29-3.65-6-6.14-12.97-7.22-20.54-.66-4.64-2.68-18.76,13.36-50.43,3.36-6.64,7.26-13.48,10.97-19.27,5.96-9.29,9.06-12.34,12.4-14.45,6.4-4.04,14.46-4.21,20.9-.55,15.9,1.32,69.75,.04,115.22-2.11l14.62-.69,5.08,13.72c.32,.86,7.85,21.27,14.25,44.04,13.09,46.59,9.63,61.42,3.96,70.51-8.05,12.88-17.37,17.58-25.42,18.91,2.07,4.05,3.61,8.29,5.23,12.73,3.42,9.37,8.09,22.2,20.95,41.79,14.33,21.84,16.94,47.19,6.98,67.83-6.75,13.98-17.92,22.98-29.89,24.07-1.02,.09-2.02,.14-3,.14Zm-38.68-113.5c1.22,2.61,2.4,5.14,3.57,7.6,11.12,23.51,20.03,40.53,27.23,52.03,2.42,3.86,4.42,6.73,6.04,8.86,1.49-5.54,1.43-14.24-5.68-25.08-15.4-23.47-21.23-39.46-25.09-50.03-1.03-2.83-1.96-5.37-2.77-7.19-4.18-2.32-15.31-5.53-24.52-6.99l-16.87-2.67-.02-55.08v-42.79l32.83,27.45c10.24,8.55,22.53,17.23,27.41,19.42,2.57,.17,4.86,.58,6.81,.99-.08-4.87-1.32-16.82-8.72-42.25-2.5-8.6-5.13-16.75-7.3-23.19-11.83,.48-29.23,1.13-46.69,1.57-18.21,.45-32.97,.58-43.89,.39-5.12-.09-9.52-.21-13.36-.47-2.38,3.93-5.19,8.94-7.92,14.52-7.32,14.95-8.52,22.84-8.36,24.62,.6,4.21,2.33,6.77,3.78,7.41,1.69,.75,6.79,.5,15.19-5.2,18.31-12.42,30.12-8.11,36.81-2.31,13.81,11.98,6.79,31.95,4.15,39.46-2.93,8.33-6.61,15.87-6.76,16.19l-2.78,5.67-5.53,3.05c-9.91,5.46-34.24,18.39-46.25,20.47-13.93,2.41-28.38-4.31-43.03-19.98-4.04,.03-9.76,1.48-11.76,3.14,.05,.36,.16,.93,.42,1.72,7.4,22.95,26.97,33.94,36.68,36.7,22.21,4.68,46.84,7.49,53.27,6.08,2.05-1.96,4.11-10.12,5-13.65,.65-2.56,1.26-4.97,2.03-7.3l37.95,12.65c-.31,.92-.76,2.71-1.2,4.45-.3,1.19-.63,2.51-1.01,3.93l30.37-14.14Zm-79.4-156.29s0,.01,0,.02c0,0,0-.01,0-.02Zm0-.02s0,0,0,0c0,0,0,0,0,0Zm-39.47-6.52s0,0,0,0c0,0,0,0,0,0Z"/>
  <path class="cls-6" d="M673.36,836.67c1.23,2.65,2.44,5.22,3.62,7.71,31.32,66.22,43.78,78.26,54.38,77.29s29-29,8-61-22.3-48-28.15-58-37.85-15-37.85-15v-38s28.7,24,37.85,24,17.15,8,27.15-8-20-97-20-97c0,0-127,6-126,0s-31,43-28,64,22,35,50,16,5,28,5,28c0,0-30,16.55-40,18.27s-22-10.27-28-17.27-52-3-42,28,36,46,51,50c0,0,47,10,63,6s18-25,21-34"/>
  <path class="cls-2" d="M727.1,426c5.92,15.12,55.72,102.01,100.11,63.62"/>
  <path class="cls-4" d="M784.96,245.75c-35.78,4.11-84,5-78,47s33,52,71,51,77-22,77-43-19.33-60.82-70-55Z"/>
  <path class="cls-5" d="M801.94,284.51h0c.78,0,5.75,.63,5.75,1.41v5.97c0,.24-.06,.47-.18,.68l-7.32-1.87c-.88-15.42,2.86-1.68,0,0-2.08,1.23,13.59,0,7.5,8.81h-13.59c-.78,0-1.41-.63-1.41-1.41v-12.91c0-.43,.19-.83,.53-1.1l6.58-5.27c.25-.2,.56-.31,.88-.31h5.02c1.24,0-2.84,6.83-3.76,6s2.07-8.63-1.26-2.06c-.47,.94,.2,2.06,1.26,2.06Z"/>
</svg>