<?xml version="1.0" encoding="UTF-8"?>
<svg id="Layer_1" data-name="Layer 1" xmlns="http://www.w3.org/2000/svg" viewBox="0 0 102.54 181.02">
  <defs>
    <style>
      .cls-1 {
        fill: #ffde00;
        stroke-width: 1.5px;
      }

      .cls-1, .cls-2, .cls-3, .cls-4 {
        stroke: #000;
        stroke-linecap: round;
        stroke-miterlimit: 10;
      }

      .cls-2 {
        stroke-width: 3px;
      }

      .cls-2, .cls-4, .cls-5 {
        fill: red;
      }

      .cls-3 {
        stroke-width: .5px;
      }
    </style>
  </defs>
  <path class="cls-4" d="M51.04,140.92c6.93-.22,17.13-1.9,17.13-1.9,0,0,2.14,5.08,3.81,8.03,2.28,4.04,6.14,7.38,3.11,10.89-3.56,4.11-11.25-12.71-11.25-12.71,0,0,3.67,30.72,.92,33.17-7.28,6.47-7.29-5.61-9.22-12.13-.54-1.83-2.02-.82-2.02-.82,0,0-.73,15-7.54,15.08-6.85,.08-4.84-33.03-4.84-33.03,0,0-4.84,14.33-9.59,12.2s4.02-21.36,4.02-21.36c0,0,9.68,2.78,15.47,2.6h0Z"/>
  <g>
    <path class="cls-2" d="M90.87,35.73s41.05,107.48-41.8,105.04C-18.77,134.73,5.86,43.84,5.86,43.84c0,0,4.41,2.87,6.44,8.41,1.51,4.13,2.64,16.35,2.64,16.35,0,0,2.89-13.52,5.23-19.91,2.89-7.86,5.83-8.58,7.41-16.8,1.51-7.9-1.91-19.41-1.91-19.41,0,0,11.19,8.1,15.44,16.97,3.15,6.58,3.54,22.64,3.54,22.64,0,0,6.63-1.27,9.55-9.75,3.52-10.21,6.96-38.12,6.96-38.12,0,0,8.74,13.24,13.54,26.21,3.09,8.35,6.68,28.4,6.68,28.4,0,0,3.44-6.32,5.65-11.68,1.5-3.65,3.85-11.43,3.85-11.43h0Z"/>
    <path class="cls-5" d="M74.77,69.84s3.95-2.15,7.92-5.51c3.27-2.76,10.65-10.17,10.65-10.17,0,0,3.3,18.92,3.16,26.02-.27,13.92-4.19,27.83-4.19,27.83,0,0-5.32-3.51-8.47-10.12-2.41-5.07-5.77-19.8-5.77-19.8,0,0-8.35,1.33-14.88-.46-3.45-.95-10.71-6.55-10.71-6.55,0,0-7.46,9.47-12.51,11.18-6.39,2.16-16.79-1.27-16.79-1.27,0,0-.26-10.6,1.21-17.08,1.72-7.58,5.21-13.42,7.62-17.74,.8-1.44,2.15-6.19,2.5-4.57,1.7,7.91,12.39,22.68,12.39,22.68,0,0,7.68-10.03,10.35-15.79,3.85-8.31,6.36-20.25,6.36-20.25,0,0,6.55,6.31,8.76,14.57,2.14,7.98,2.38,27.04,2.38,27.04h0Z"/>
    <path class="cls-5" d="M66.93,34.56s6.94,12.21,4.17,32.32c-1.36,9.86-9.53,5.85-9.53,5.85,0,0-4.42-4.81-3.95-8.16,1.41-10.04,9.32-30.01,9.32-30.01h0Z"/>
    <path class="cls-5" d="M91.28,89.44s-8.42-5.76-7.87-9.98c.58-4.4,10.76-12.1,10.76-12.1,0,0,2.07,3.39,1.04,11.83-.9,7.39-3.93,10.24-3.93,10.24Z"/>
    <path class="cls-5" d="M40.52,74.17s-2.88,2.06-7.21,.99c-5.47-1.35-4.96-4.29-4.96-4.29,0,0,4.8-14.17,7.88-13.34,1.68,.45,4.3,16.64,4.3,16.64h0Z"/>
    <path class="cls-1" d="M47.74,89.65s1.54,9.26-11.14,10.32c-11.85,.99-11.55-9.08-11.55-9.08,0,0,1.39-11.16,11.42-10.73,10.59,.46,11.28,9.5,11.28,9.5h0Z"/>
    <path class="cls-1" d="M60.53,90.68s.9-7.2,9.08-7.22c6.32-.02,7.43,8.05,7.43,8.05,0,0-.53,8.56-7.68,7.64-8.65-1.11-8.83-8.47-8.83-8.47h0Z"/>
    <path d="M37.32,92.12c0-.85,.69-1.55,1.55-1.55s1.55,.69,1.55,1.55-.69,1.55-1.55,1.55-1.55-.69-1.55-1.55Z"/>
    <path d="M65.18,92.33c0-.85,.69-1.55,1.55-1.55s1.55,.69,1.55,1.55-.69,1.55-1.55,1.55-1.55-.69-1.55-1.55Z"/>
    <path class="cls-3" d="M35.16,116.61s7.49,4.21,12.94,5.58c5.42,1.36,14.91,1.43,14.91,1.43,0,0-4.66,4.57-15.53,1.45-7.51-2.15-12.33-8.47-12.33-8.47h0Z"/>
    <g>
      <path class="cls-5" d="M5.26,66.42s3.19,6.48,5.88,10.68c1.08,1.69,3.76,4.41,3.76,4.41,0,0-1,3.23-1.61,9.27-.32,3.21,1.34,9.82,1.34,9.82,0,0-2.69-3-4.07-5.27-1.96-3.23-4.48-8.82-4.48-8.82l-.82-20.09Z"/>
      <path class="cls-5" d="M13.17,88.03s-1,3.49-1.87,3.55c-1.12,.08-3.22-3.19-3.22-3.19,0,0-.78-3.1-.99-5.96-.25-3.49-.2-10.32-.2-10.32,0,0,1.68,3.29,3.04,5.34,.91,1.36,2.78,3.39,2.78,3.39l.45,7.18h0Z"/>
    </g>
  </g>
</svg>