<?xml version="1.0" encoding="utf-8"?>
<!-- Generator: Adobe Illustrator 26.5.0, SVG Export Plug-In . SVG Version: 6.00 Build 0)  -->
<svg version="1.1" id="Layer_2_00000043452488780707211050000004537425199136544692_"
	 xmlns="http://www.w3.org/2000/svg" xmlns:xlink="http://www.w3.org/1999/xlink" x="0px" y="0px" viewBox="0 0 1095 964"
	 style="enable-background:new 0 0 1095 964;" xml:space="preserve">
<style type="text/css">
	.st0{fill:#ED1C24;stroke:#000000;stroke-width:16;stroke-miterlimit:10;}
	.st1{fill:#ED1C24;}
	.st2{fill:none;stroke:#000000;stroke-width:16;stroke-miterlimit:10;}
	.st3{fill:#F8EC20;stroke:#000000;stroke-width:16;stroke-miterlimit:10;}
	.st4{fill:#F8EC20;stroke:#000000;stroke-width:0.75;stroke-miterlimit:10;}
	.st5{fill:#231F20;stroke:#000000;stroke-miterlimit:10;}
	.st6{fill:#ED1C24;stroke:#000000;stroke-width:6;stroke-miterlimit:10;}
</style>
<path class="st0" d="M690.2,659.1c-64.1,0-112.7-6.5-144.3-19.2c-27.6-11.1-40.5-26-46.2-39.4c-21.5-1.5-54.6-3.3-86.1-3.3
	c-33.5,0-50.5,2-58.5,3.6c-14.9,6.5-19.2,7.3-24.3,7.3h-24.2l-5.2-23.7c-2.3-10.4,0.8-25.5,16.7-33.8c1.5-0.8,3.3-1.7,5.7-2.7
	c3.6-1.7,7.6-3.1,12.3-4.3c18.3-8.3,32.3-16.4,41.7-22.9c-13.6-5-36.4-11.8-71.7-18.6c-46.3-9-156-12.6-157.2-12.2
	c-4.4,2.3-10.3,5.3-18.1,5.3c0,0-20.8-5.8-26.1-15c-2.8-4.8-0.8-15.5,5.4-26.9c5.7-10.4,14.9-21.5,27.1-29.3
	c9.2-5.9,28.1-17.7,51.6-30.9c17.6-9.9,32.6-17.7,45.3-23.9c-2.9-1.5-5.8-3.1-8.7-4.6l-64.6-34.2l70-21
	c38.6-11.6,82.2-25.7,110.9-36.1c-10.2-8.6-21.6-17.7-29-23.6c-8.1-6.5-15.1-12-20.4-16.5c-3.4-2.9-5.8-5.1-7.7-7
	c-12.4-12.5-88.5-9-86.8-15.5c3.2-11.7,90.3-36.5,102.3-38.3l0.5-0.1l6.1-0.7c131.3-14.2,169.6-55.3,209.9-64.3
	C550.4,92.2,581.2,92,648.2,92c74.9,0,151.6,23.4,210.6,64.3c32.6,22.6,59.3,49.9,79.3,81.1c21.9,34.1,35.3,72.2,39.9,113.2
	c6,54-20.5,145.3-83,215.1C840.5,626.8,769.6,659,690.2,659.1L690.2,659.1z"/>
<path d="M725,910.2c-9.3,0-15.8-8.1-21.1-16.1c-7.6-11.7-17.1-31.4-29.8-62.2c-0.9-2.2-1.8-4.5-2.8-6.8l-0.3-0.6l13-5.3l0.3,0.6
	c0.9,2.3,1.8,4.5,2.7,6.7c12.2,29.5,21.5,49.1,28.6,59.9c5.6,8.6,8.5,9.7,9.4,9.7c1.1-0.5,4.2-3.5,6.4-9.7c2-5.5,5.5-20.2-4.9-38.2
	c-12.2-21.2-16.8-35.7-19.8-45.3c-1.4-4.4-2.5-7.9-3.8-10.5c-1.9-3.7-15.6-8.7-26.6-10.6l-5.8-1l0-58.6l11.8,11.3
	c10.8,10.4,23.3,20.1,27,21c2.7,0,5.1,0.7,7.1,1.2c1.8,0.5,3.4,0.9,4.3,0.6c0.5-0.2,2.2-1,4.8-5.8c0.4-0.7,3.6-8.3-5.8-47
	c-3.5-14.4-7.6-28-9.7-35.1c-8.8,0.4-27.1,1.3-45.5,1.8c-31.7,0.9-45.8,0.4-52.5-0.7c-6.3,10.7-20.1,39.1-18.5,52
	c1.1,8.5,4.7,14.8,9.9,16.9c5.3,2.2,12.6,0,20.6-6.3c2.9-2.3,11.8-9.2,18.7-3.8c6.3,4.9,4.2,15.1,1.4,24.4
	c-2.2,7.4-5.1,14.2-5.3,14.5l-0.9,2l-1.8,1.2c-4.4,2.8-26.6,16.6-35.7,18.4c-11.3,2.2-22.4-8.8-29.9-18.6c-2.7-1.1-12.7-1-19.2,4.1
	c-4.6,3.6-5.9,8.9-3.9,16c7.6,27,27.2,39.7,37.7,43c14.5,3.5,40.4,8.2,48.8,5.8c6.9-2,9.4-13.3,11.3-21.6c0.5-2.2,1-4.3,1.5-6.1
	l13.4,3.9c-0.4,1.3-0.8,3.2-1.2,5.2c-2.3,10.4-6.1,27.8-21.1,32.1c-14.4,4.1-49.3-4-56.1-5.7l-0.4-0.1c-16.4-5-38.6-21.8-47.2-52.6
	c-4.2-15,1.2-27.9,14.5-34.4c11-5.4,27.4-5.9,32.9,1.6c8.1,10.8,14.4,14.3,16.4,13.8c4.6-0.9,19.1-9.1,29.1-15.3
	c2.3-5.8,4.3-11.8,5.3-16.2c-15.3,11.7-27,10.7-34.1,7.8c-9.8-4.1-16.7-14.6-18.4-28.1c-1.4-11.5,4.7-28.6,10.2-40.8
	c0.4-1,10.8-24.3,16.2-27.6c2.4-1.5,5.4-1.5,7.8,0c0.5,0.3,0.9,0.7,1.3,1.1c10.8,1.7,57.7,0.6,99.7-1.7l5.4-0.3l1.7,5.1
	c0.1,0.2,6.4,19.8,11.6,41.1c9.8,40,7.6,51.6,4.6,57.1c-8.2,15-17.1,14.1-24.9,12c-1.5-0.4-2.8-0.7-3.9-0.7c-6,0-15.4-6.5-24.6-14.2
	v14.9c9.8,2.3,26,7.4,30.8,16.9c1.9,3.6,3.1,7.6,4.7,12.6c3,9.5,7.2,22.6,18.6,42.5c15.6,27.3,6.7,49.1,3.6,55.2
	c-4.1,8-9.8,13-15.6,13.6C726.2,910.2,725.6,910.2,725,910.2z M725,896.3L725,896.3L725,896.3z M617,662.2
	C617,662.3,617,662.3,617,662.2C617,662.3,617,662.3,617,662.2z M603.1,660.3C603.1,660.3,603.1,660.3,603.1,660.3
	C603.1,660.3,603.1,660.3,603.1,660.3z"/>
<path class="st1" d="M677.7,821.9c1,2.5,2,5,3,7.4c26.1,63.3,36.5,74.8,45.4,73.9s24.2-27.7,6.7-58.3
	c-17.5-30.6-18.6-45.9-23.5-55.5S677.7,775,677.7,775v-36.3c0,0,23.9,23,31.6,23s14.3,7.7,22.6-7.7c8.3-15.3-16.7-92.8-16.7-92.8
	s-105.9,5.7-105.1,0s-25.9,41.1-23.4,61.2s18.3,33.5,41.7,15.3c23.4-18.2,4.2,26.8,4.2,26.8s-25,15.8-33.4,17.5
	c-8.3,1.7-18.3-9.8-23.4-16.5c-5-6.7-43.4-2.9-35,26.8s30,44,42.5,47.8c0,0,39.2,9.6,52.5,5.7s15-23.9,17.5-32.5"/>
<path class="st2" d="M706.5,455c-11.9,28.5,64.6,81.8,120.8,34.6"/>
<path class="st3" d="M781.9,230c-35.8,4.1-81,20.8-75,62.8s33,49.2,71,51c38.4,1.8,64.9-5.2,77-43C863.3,274.7,850,226,781.9,230z"
	/>
<path class="st4" d="M806,278"/>
<path class="st5" d="M803.7,272.1c0,0,13.6,0.1,12.2,9.5c-1.4,9.4-1.8,10-8.7,10.5c-6.9,0.6-12.4-3.7-12.1-8.6
	C795.3,278.6,795.4,272.2,803.7,272.1z"/>
<path class="st5" d="M1010.9,174.4"/>
<path class="st6" d="M654.2,812.1c17.7,10.1,22.7,10.8,23.5,9.8"/>
</svg>
